<?xml version="1.0" standalone="no"?>
<!DOCTYPE svg PUBLIC "-//W3C//DTD SVG 1.1//EN" "http://www.w3.org/Graphics/SVG/1.1/DTD/svg11.dtd">
<svg xmlns="http://www.w3.org/2000/svg" width="332" height="100" viewBox="0 0 332 100" fill="none">
<path d="M9 11.7857C9 6.9335 12.9335 3 17.7857 3H44C69.9574 3 91 24.0426 91 50C91 75.9574 69.9574 97 44 97H17.7857C12.9335 97 9 93.0665 9 88.2143V11.7857Z" fill="#216EE1"/>
<path d="M39 28L61 50L39 72" stroke="white" stroke-width="11" stroke-linecap="round" stroke-linejoin="round"/>
<path d="M39 28L55.8145 44.8145C58.6784 47.6784 58.6784 52.3216 55.8145 55.1854L39 72" stroke="white" stroke-width="11" stroke-linecap="round" stroke-linejoin="round"/>
<path d="M113.519 70.9028C113.074 70.9028 112.709 70.7634 112.425 70.4847C112.142 70.206 112 69.8477 112 69.4097V30.5903C112 30.1523 112.142 29.794 112.425 29.5153C112.709 29.2366 113.074 29.0972 113.519 29.0972H128.773C132.825 29.0972 136.208 29.7343 138.923 31.0083C141.637 32.2426 143.703 34.0741 145.121 36.5028C146.58 38.8917 147.35 41.8579 147.431 45.4014C147.471 47.1532 147.492 48.6861 147.492 50C147.492 51.3139 147.471 52.8269 147.431 54.5389C147.309 58.2417 146.56 61.3074 145.182 63.7361C143.805 66.1648 141.779 67.9764 139.105 69.1708C136.431 70.3255 133.088 70.9028 129.077 70.9028H113.519ZM121.663 61.9325C121.663 62.6318 122.23 63.1986 122.929 63.1986H128.773C130.799 63.1986 132.46 62.9 133.757 62.3028C135.053 61.7056 136.005 60.7699 136.613 59.4958C137.261 58.1819 137.606 56.4898 137.646 54.4194C137.687 53.2648 137.707 52.2296 137.707 51.3139C137.748 50.3981 137.748 49.4824 137.707 48.5667C137.707 47.6509 137.687 46.6356 137.646 45.5208C137.565 42.5347 136.775 40.3449 135.276 38.9514C133.818 37.5181 131.549 36.8014 128.47 36.8014H122.929C122.23 36.8014 121.663 37.3682 121.663 38.0675V61.9325Z" fill="#2F3135"/>
<path d="M171.982 71.5C168.295 71.5 165.115 70.9028 162.441 69.7083C159.767 68.5139 157.68 66.7222 156.181 64.3333C154.682 61.9046 153.872 58.8588 153.75 55.1958C153.71 53.4838 153.689 51.7917 153.689 50.1194C153.689 48.4074 153.71 46.6755 153.75 44.9236C153.872 41.3403 154.682 38.3343 156.181 35.9056C157.721 33.437 159.828 31.5856 162.502 30.3514C165.216 29.1171 168.376 28.5 171.982 28.5C175.548 28.5 178.667 29.1171 181.341 30.3514C184.056 31.5856 186.183 33.437 187.722 35.9056C189.262 38.3343 190.072 41.3403 190.153 44.9236C190.234 46.6755 190.275 48.4074 190.275 50.1194C190.275 51.7917 190.234 53.4838 190.153 55.1958C190.032 58.8588 189.222 61.9046 187.722 64.3333C186.223 66.7222 184.137 68.5139 181.463 69.7083C178.789 70.9028 175.629 71.5 171.982 71.5ZM171.982 63.7958C174.332 63.7958 176.257 63.0991 177.756 61.7056C179.295 60.2722 180.106 58.0028 180.187 54.8972C180.268 53.1454 180.308 51.513 180.308 50C180.308 48.4472 180.268 46.8148 180.187 45.1028C180.146 43.0324 179.761 41.3403 179.032 40.0264C178.303 38.7125 177.33 37.7569 176.115 37.1597C174.94 36.5227 173.562 36.2042 171.982 36.2042C170.402 36.2042 169.004 36.5227 167.789 37.1597C166.573 37.7569 165.601 38.7125 164.872 40.0264C164.183 41.3403 163.798 43.0324 163.717 45.1028C163.677 46.8148 163.656 48.4472 163.656 50C163.656 51.513 163.677 53.1454 163.717 54.8972C163.839 58.0028 164.649 60.2722 166.148 61.7056C167.647 63.0991 169.592 63.7958 171.982 63.7958Z" fill="#2F3135"/>
<path d="M199.338 70.9028C198.892 70.9028 198.527 70.7634 198.244 70.4847C197.96 70.206 197.818 69.8477 197.818 69.4097V30.5903C197.818 30.1523 197.96 29.794 198.244 29.5153C198.527 29.2366 198.892 29.0972 199.338 29.0972H206.205C206.651 29.0972 207.015 29.2366 207.299 29.5153C207.583 29.794 207.724 30.1523 207.724 30.5903V69.4097C207.724 69.8477 207.583 70.206 207.299 70.4847C207.015 70.7634 206.651 70.9028 206.205 70.9028H199.338Z" fill="#2F3135"/>
<path d="M218.211 70.9028C217.765 70.9028 217.4 70.7634 217.117 70.4847C216.833 70.206 216.691 69.8477 216.691 69.4097V30.5903C216.691 30.1523 216.833 29.794 217.117 29.5153C217.4 29.2366 217.765 29.0972 218.211 29.0972H223.741C224.349 29.0972 224.794 29.2366 225.078 29.5153C225.362 29.794 225.544 30.013 225.625 30.1722L240.688 53.2907C241.032 53.8184 241.851 53.5749 241.851 52.9451V30.5903C241.851 30.1523 241.993 29.794 242.277 29.5153C242.56 29.2366 242.905 29.0972 243.31 29.0972H249.509C249.955 29.0972 250.319 29.2366 250.603 29.5153C250.886 29.794 251.028 30.1523 251.028 30.5903V69.4097C251.028 69.8079 250.886 70.1662 250.603 70.4847C250.319 70.7634 249.955 70.9028 249.509 70.9028H243.918C243.333 70.9028 242.898 70.7737 242.614 70.5157C242.591 70.4955 242.572 70.4727 242.553 70.4489C242.352 70.1862 242.194 69.9946 242.079 69.8739C242.049 69.8427 242.022 69.8098 241.998 69.774L227.027 47.4298C226.679 46.9101 225.868 47.1566 225.868 47.7822V69.4097C225.868 69.8477 225.726 70.206 225.443 70.4847C225.159 70.7634 224.794 70.9028 224.349 70.9028H218.211Z" fill="#2F3135"/>
<path d="M270.894 70.9028C270.449 70.9028 270.084 70.7634 269.8 70.4847C269.517 70.206 269.375 69.8477 269.375 69.4097V38.6647C269.375 37.9655 268.808 37.3986 268.109 37.3986H258.314C257.909 37.3986 257.565 37.2593 257.281 36.9806C256.998 36.7019 256.856 36.3634 256.856 35.9653V30.5903C256.856 30.1523 256.998 29.794 257.281 29.5153C257.565 29.2366 257.909 29.0972 258.314 29.0972H290.16C290.605 29.0972 290.97 29.2366 291.253 29.5153C291.537 29.794 291.679 30.1523 291.679 30.5903V35.9653C291.679 36.3634 291.537 36.7019 291.253 36.9806C290.97 37.2593 290.605 37.3986 290.16 37.3986H280.426C279.726 37.3986 279.16 37.9655 279.16 38.6647V69.4097C279.16 69.8477 279.018 70.206 278.734 70.4847C278.451 70.7634 278.086 70.9028 277.64 70.9028H270.894Z" fill="#2F3135"/>
<path d="M313.707 71.5C310.02 71.5 306.84 70.9028 304.166 69.7083C301.492 68.5139 299.405 66.7222 297.906 64.3333C296.407 61.9046 295.597 58.8588 295.475 55.1958C295.435 53.4838 295.415 51.7917 295.415 50.1194C295.415 48.4074 295.435 46.6755 295.475 44.9236C295.597 41.3403 296.407 38.3343 297.906 35.9056C299.446 33.437 301.553 31.5856 304.227 30.3514C306.941 29.1171 310.101 28.5 313.707 28.5C317.273 28.5 320.392 29.1171 323.066 30.3514C325.781 31.5856 327.908 33.437 329.448 35.9056C330.987 38.3343 331.797 41.3403 331.878 44.9236C331.959 46.6755 332 48.4074 332 50.1194C332 51.7917 331.959 53.4838 331.878 55.1958C331.757 58.8588 330.947 61.9046 329.448 64.3333C327.948 66.7222 325.862 68.5139 323.188 69.7083C320.514 70.9028 317.354 71.5 313.707 71.5ZM313.707 63.7958C316.057 63.7958 317.982 63.0991 319.481 61.7056C321.02 60.2722 321.831 58.0028 321.912 54.8972C321.993 53.1454 322.033 51.513 322.033 50C322.033 48.4472 321.993 46.8148 321.912 45.1028C321.871 43.0324 321.486 41.3403 320.757 40.0264C320.028 38.7125 319.055 37.7569 317.84 37.1597C316.665 36.5227 315.287 36.2042 313.707 36.2042C312.127 36.2042 310.729 36.5227 309.514 37.1597C308.298 37.7569 307.326 38.7125 306.597 40.0264C305.908 41.3403 305.523 43.0324 305.442 45.1028C305.402 46.8148 305.381 48.4472 305.381 50C305.381 51.513 305.402 53.1454 305.442 54.8972C305.564 58.0028 306.374 60.2722 307.873 61.7056C309.372 63.0991 311.317 63.7958 313.707 63.7958Z" fill="#2F3135"/>
</svg>